<svg xmlns="http://www.w3.org/2000/svg" width="24" height="24" viewBox="0 0 24 24" fill="currentColor">
  <path d="M17.5 8.515L19.964 6.051C20.354 5.661 20.354 5.028 19.964 4.637C19.573 4.247 18.94 4.247 18.549 4.637L15.949 7.237H6.05L3.45 4.637C3.059 4.247 2.426 4.247 2.036 4.637C1.645 5.028 1.645 5.661 2.036 6.051L4.5 8.515C2.8 9.337 1.5 11.155 1.5 13.5V17.5C1.5 20.261 3.738 22.5 6.5 22.5H15.5C18.261 22.5 20.5 20.261 20.5 17.5V13.5C20.5 11.155 19.199 9.337 17.5 8.515ZM8 17C7.447 17 7 16.552 7 16C7 15.448 7.447 15 8 15C8.552 15 9 15.448 9 16C9 16.552 8.552 17 8 17ZM14 17C13.447 17 13 16.552 13 16C13 15.448 13.447 15 14 15C14.552 15 15 15.448 15 16C15 16.552 14.552 17 14 17Z" />
</svg>
