<svg xmlns="http://www.w3.org/2000/svg" width="24" height="24" viewBox="0 0 24 24" fill="currentColor">
  <path d="M18.5 7.515L20.964 5.051C21.354 4.661 21.354 4.028 20.964 3.637C20.573 3.247 19.94 3.247 19.549 3.637L16.949 6.237H7.05L4.45 3.637C4.059 3.247 3.426 3.247 3.036 3.637C2.645 4.028 2.645 4.661 3.036 5.051L5.5 7.515C3.8 8.337 2.5 10.155 2.5 12.5V16.5C2.5 19.261 4.738 21.5 7.5 21.5H16.5C19.261 21.5 21.5 19.261 21.5 16.5V12.5C21.5 10.155 20.199 8.337 18.5 7.515ZM9 16C8.447 16 8 15.552 8 15C8 14.447 8.447 14 9 14C9.552 14 10 14.447 10 15C10 15.552 9.552 16 9 16ZM15 16C14.447 16 14 15.552 14 15C14 14.447 14.447 14 15 14C15.552 14 16 14.447 16 15C16 15.552 15.552 16 15 16Z" />
</svg>
